<?xml version="1.0" encoding="UTF-8"?>
<svg xmlns="http://www.w3.org/2000/svg" width="185" height="32" viewBox="0 0 185 32">
  <g id="Logo_aston_bufet" transform="translate(0.5 0.5)">
    <!-- aston text (blue) - copied from original -->
    <path id="aston" d="M45.03,11.7c0-4.652,3.716-7.812,9.129-7.812,5.589,0,9.159,3.1,9.159,8.017,0,4.565-3.95,7.813-9.422,7.813C48.6,19.722,45.03,16.532,45.03,11.7Zm5.384,0c0,2.634,1.434,4.185,3.745,4.185,2.282,0,3.746-1.551,3.746-4.009,0-2.633-1.4-4.184-3.746-4.184C51.907,7.7,50.414,9.217,50.414,11.7ZM34.088,14.6V7.784h-2.75V4.243h2.75V0h5.179V4.243H44.3v3.54H39.267V14.63c0,.878.585,1.258,2.048,1.258a9.19,9.19,0,0,0,2.546-.439v3.775a21.375,21.375,0,0,1-4.038.5C36.106,19.722,34.088,17.937,34.088,14.6ZM18.4,18.9V15.444a17.147,17.147,0,0,0,5.208.8c1.17,0,1.872-.409,1.872-1.14,0-1.9-6.993-1.112-6.993-6.379,0-3.482,2.838-4.828,6.671-4.828a34.34,34.34,0,0,1,4.594.342V7.713a37.216,37.216,0,0,0-4.476-.339c-1.025,0-1.785.292-1.785,1.024,0,1.843,7.081,1.375,7.081,6.291,0,3.511-3.043,5.033-7.257,5.033A14.722,14.722,0,0,1,18.4,18.9Zm-7.695-1.141H10.68a6.594,6.594,0,0,1-5.033,1.872C2.077,19.633,0,17.849,0,14.865c0-3.277,2.458-5.15,6.73-5.15h3.453V9.568c0-1.316-.966-1.872-3.365-1.872a31.565,31.565,0,0,0-5,.5V4.565a27.879,27.879,0,0,1,5.97-.673c5.325,0,7.548,1.7,7.548,5.794v5.249c0,.614.381.7.907.7a6.092,6.092,0,0,0,.7-.059v3.47a8.667,8.667,0,0,1-2.9.585C12.465,19.633,11.266,19.165,10.709,17.761ZM5.267,14.425c0,.907.468,1.492,2.019,1.492a5.729,5.729,0,0,0,2.9-.673V12.582H7.93C6.115,12.582,5.267,13.255,5.267,14.425Zm71.1,4.828V10.1c0-1.726-.673-2.34-2.78-2.34a6.318,6.318,0,0,0-3.219.79V19.254H65.19V4.243h4.74V6.028h.088a9.471,9.471,0,0,1,6-2.136c3.745,0,5.53,1.96,5.53,5.881v9.48Z" transform="translate(0 9.331)" fill="#0074d9"/>

    <!-- bufet text (red) -->
    <text x="87" y="26" font-family="Arial, sans-serif" font-size="22" font-weight="300" fill="#ff4136" letter-spacing="1">bufet</text>

    <!-- 2.0 badge (blue box) -->
    <g id="badge" transform="translate(145, 4)">
      <rect x="0" y="0" width="32" height="18" rx="3" ry="3" fill="none" stroke="#0074d9" stroke-width="2"/>
      <text x="16" y="13.5" font-family="Arial, sans-serif" font-size="11" font-weight="700" fill="#0074d9" text-anchor="middle">2.0</text>
    </g>
  </g>
</svg>
